<mxfile host="Electron" modified="2025-04-01T18:11:12.882Z" agent="Mozilla/5.0 (Windows NT 10.0; Win64; x64) AppleWebKit/537.36 (KHTML, like Gecko) draw.io/21.6.1 Chrome/112.0.5615.204 Electron/24.6.1 Safari/537.36" etag="5H4RyP9KCRN8pEu2mtf2" version="21.6.1" type="device" pages="5">
  <diagram name="Page-1" id="NlYMB6wlxY-WvLTv89MI">
    <mxGraphModel dx="3164" dy="1196" grid="1" gridSize="10" guides="1" tooltips="1" connect="1" arrows="1" fold="1" page="1" pageScale="1" pageWidth="850" pageHeight="1100" math="0" shadow="0">
      <root>
        <mxCell id="0" />
        <mxCell id="1" parent="0" />
        <mxCell id="x9ryf0Mr25MXoDsbSfs6-1" value="" style="rounded=0;whiteSpace=wrap;html=1;fillColor=none;" vertex="1" parent="1">
          <mxGeometry x="-440" y="40" width="1300" height="400" as="geometry" />
        </mxCell>
        <mxCell id="x9ryf0Mr25MXoDsbSfs6-2" value="BOOTING" style="rounded=0;whiteSpace=wrap;html=1;fillColor=#f8cecc;strokeColor=#b85450;rotation=-90;" vertex="1" parent="1">
          <mxGeometry x="-620" y="220" width="400" height="40" as="geometry" />
        </mxCell>
        <mxCell id="x9ryf0Mr25MXoDsbSfs6-3" value="Start" style="strokeWidth=2;html=1;shape=mxgraph.flowchart.start_1;whiteSpace=wrap;" vertex="1" parent="1">
          <mxGeometry x="-360" y="180" width="80" height="80" as="geometry" />
        </mxCell>
        <mxCell id="x9ryf0Mr25MXoDsbSfs6-4" value="Verify" style="verticalLabelPosition=bottom;verticalAlign=top;html=1;shape=process;whiteSpace=wrap;rounded=1;size=0.14;arcSize=6;" vertex="1" parent="1">
          <mxGeometry x="-160" y="190" width="100" height="60" as="geometry" />
        </mxCell>
        <mxCell id="x9ryf0Mr25MXoDsbSfs6-5" style="edgeStyle=orthogonalEdgeStyle;rounded=0;orthogonalLoop=1;jettySize=auto;html=1;entryX=0.5;entryY=0;entryDx=0;entryDy=0;" edge="1" parent="1" source="x9ryf0Mr25MXoDsbSfs6-6" target="x9ryf0Mr25MXoDsbSfs6-4">
          <mxGeometry relative="1" as="geometry" />
        </mxCell>
        <mxCell id="x9ryf0Mr25MXoDsbSfs6-6" value="executable partition" style="strokeWidth=2;html=1;shape=mxgraph.flowchart.document2;whiteSpace=wrap;size=0.25;" vertex="1" parent="1">
          <mxGeometry x="-160" y="100" width="100" height="60" as="geometry" />
        </mxCell>
        <mxCell id="x9ryf0Mr25MXoDsbSfs6-8" style="edgeStyle=orthogonalEdgeStyle;rounded=0;orthogonalLoop=1;jettySize=auto;html=1;entryX=0;entryY=0.5;entryDx=0;entryDy=0;entryPerimeter=0;" edge="1" parent="1" source="x9ryf0Mr25MXoDsbSfs6-4">
          <mxGeometry relative="1" as="geometry">
            <mxPoint x="-10" y="220" as="targetPoint" />
          </mxGeometry>
        </mxCell>
        <mxCell id="x9ryf0Mr25MXoDsbSfs6-9" value="RECOVER FROM DOWNLOAD" style="strokeWidth=2;html=1;shape=mxgraph.flowchart.terminator;whiteSpace=wrap;" vertex="1" parent="1">
          <mxGeometry y="340" width="130" height="60" as="geometry" />
        </mxCell>
        <mxCell id="x9ryf0Mr25MXoDsbSfs6-11" value="YES" style="edgeStyle=orthogonalEdgeStyle;rounded=0;orthogonalLoop=1;jettySize=auto;html=1;" edge="1" parent="1" source="x9ryf0Mr25MXoDsbSfs6-12" target="x9ryf0Mr25MXoDsbSfs6-14">
          <mxGeometry relative="1" as="geometry" />
        </mxCell>
        <mxCell id="3KkofnGiVOc6UB96kIpY-11" value="" style="edgeStyle=orthogonalEdgeStyle;rounded=0;orthogonalLoop=1;jettySize=auto;html=1;" edge="1" parent="1" source="x9ryf0Mr25MXoDsbSfs6-12" target="x9ryf0Mr25MXoDsbSfs6-17">
          <mxGeometry relative="1" as="geometry" />
        </mxCell>
        <mxCell id="3KkofnGiVOc6UB96kIpY-12" value="NO" style="edgeLabel;html=1;align=center;verticalAlign=middle;resizable=0;points=[];" vertex="1" connectable="0" parent="3KkofnGiVOc6UB96kIpY-11">
          <mxGeometry x="0.2" relative="1" as="geometry">
            <mxPoint as="offset" />
          </mxGeometry>
        </mxCell>
        <mxCell id="x9ryf0Mr25MXoDsbSfs6-12" value="&amp;nbsp;download.version &amp;gt; executable.version?" style="strokeWidth=2;html=1;shape=mxgraph.flowchart.decision;whiteSpace=wrap;" vertex="1" parent="1">
          <mxGeometry x="185" y="145" width="150" height="150" as="geometry" />
        </mxCell>
        <mxCell id="x9ryf0Mr25MXoDsbSfs6-13" value="YES" style="edgeStyle=orthogonalEdgeStyle;rounded=0;orthogonalLoop=1;jettySize=auto;html=1;entryX=0;entryY=0.5;entryDx=0;entryDy=0;entryPerimeter=0;" edge="1" parent="1" target="x9ryf0Mr25MXoDsbSfs6-12">
          <mxGeometry relative="1" as="geometry">
            <mxPoint x="140" y="220" as="sourcePoint" />
          </mxGeometry>
        </mxCell>
        <mxCell id="3KkofnGiVOc6UB96kIpY-5" value="" style="edgeStyle=orthogonalEdgeStyle;rounded=0;orthogonalLoop=1;jettySize=auto;html=1;" edge="1" parent="1" source="x9ryf0Mr25MXoDsbSfs6-14" target="3KkofnGiVOc6UB96kIpY-2">
          <mxGeometry relative="1" as="geometry" />
        </mxCell>
        <mxCell id="x9ryf0Mr25MXoDsbSfs6-14" value="Verify" style="verticalLabelPosition=bottom;verticalAlign=top;html=1;shape=process;whiteSpace=wrap;rounded=1;size=0.14;arcSize=6;" vertex="1" parent="1">
          <mxGeometry x="370" y="190" width="100" height="60" as="geometry" />
        </mxCell>
        <mxCell id="x9ryf0Mr25MXoDsbSfs6-15" style="edgeStyle=orthogonalEdgeStyle;rounded=0;orthogonalLoop=1;jettySize=auto;html=1;entryX=0.5;entryY=0;entryDx=0;entryDy=0;" edge="1" parent="1" source="x9ryf0Mr25MXoDsbSfs6-16" target="x9ryf0Mr25MXoDsbSfs6-14">
          <mxGeometry relative="1" as="geometry" />
        </mxCell>
        <mxCell id="x9ryf0Mr25MXoDsbSfs6-16" value="download &lt;br&gt;partition" style="strokeWidth=2;html=1;shape=mxgraph.flowchart.document2;whiteSpace=wrap;size=0.25;" vertex="1" parent="1">
          <mxGeometry x="370" y="100" width="100" height="60" as="geometry" />
        </mxCell>
        <mxCell id="x9ryf0Mr25MXoDsbSfs6-17" value="LAUNCH EXECUTABLE" style="strokeWidth=2;html=1;shape=mxgraph.flowchart.terminator;whiteSpace=wrap;" vertex="1" parent="1">
          <mxGeometry x="195" y="330" width="130" height="60" as="geometry" />
        </mxCell>
        <mxCell id="x9ryf0Mr25MXoDsbSfs6-20" value="LAUNCH EXECUTABLE" style="strokeWidth=2;html=1;shape=mxgraph.flowchart.terminator;whiteSpace=wrap;" vertex="1" parent="1">
          <mxGeometry x="520" y="330" width="130" height="60" as="geometry" />
        </mxCell>
        <mxCell id="x9ryf0Mr25MXoDsbSfs6-23" value="INSTALL UPGRADE" style="strokeWidth=2;html=1;shape=mxgraph.flowchart.terminator;whiteSpace=wrap;" vertex="1" parent="1">
          <mxGeometry x="710" y="190" width="130" height="60" as="geometry" />
        </mxCell>
        <mxCell id="x9ryf0Mr25MXoDsbSfs6-37" value="" style="edgeStyle=orthogonalEdgeStyle;rounded=0;orthogonalLoop=1;jettySize=auto;html=1;entryX=0;entryY=0.5;entryDx=0;entryDy=0;" edge="1" parent="1" source="x9ryf0Mr25MXoDsbSfs6-3" target="x9ryf0Mr25MXoDsbSfs6-4">
          <mxGeometry relative="1" as="geometry">
            <mxPoint x="-350" y="220" as="sourcePoint" />
            <mxPoint x="-310" y="220" as="targetPoint" />
          </mxGeometry>
        </mxCell>
        <mxCell id="3KkofnGiVOc6UB96kIpY-3" value="" style="edgeStyle=orthogonalEdgeStyle;rounded=0;orthogonalLoop=1;jettySize=auto;html=1;" edge="1" parent="1" source="3KkofnGiVOc6UB96kIpY-1" target="x9ryf0Mr25MXoDsbSfs6-9">
          <mxGeometry relative="1" as="geometry" />
        </mxCell>
        <mxCell id="3KkofnGiVOc6UB96kIpY-4" value="NO" style="edgeLabel;html=1;align=center;verticalAlign=middle;resizable=0;points=[];" vertex="1" connectable="0" parent="3KkofnGiVOc6UB96kIpY-3">
          <mxGeometry x="-0.2" relative="1" as="geometry">
            <mxPoint as="offset" />
          </mxGeometry>
        </mxCell>
        <mxCell id="3KkofnGiVOc6UB96kIpY-1" value="Valid" style="strokeWidth=2;html=1;shape=mxgraph.flowchart.decision;whiteSpace=wrap;" vertex="1" parent="1">
          <mxGeometry x="-10" y="145" width="150" height="150" as="geometry" />
        </mxCell>
        <mxCell id="3KkofnGiVOc6UB96kIpY-6" value="" style="edgeStyle=orthogonalEdgeStyle;rounded=0;orthogonalLoop=1;jettySize=auto;html=1;" edge="1" parent="1" source="3KkofnGiVOc6UB96kIpY-2" target="x9ryf0Mr25MXoDsbSfs6-20">
          <mxGeometry relative="1" as="geometry" />
        </mxCell>
        <mxCell id="3KkofnGiVOc6UB96kIpY-7" value="NO" style="edgeLabel;html=1;align=center;verticalAlign=middle;resizable=0;points=[];" vertex="1" connectable="0" parent="3KkofnGiVOc6UB96kIpY-6">
          <mxGeometry x="0.1556" y="-3" relative="1" as="geometry">
            <mxPoint as="offset" />
          </mxGeometry>
        </mxCell>
        <mxCell id="3KkofnGiVOc6UB96kIpY-13" value="" style="edgeStyle=orthogonalEdgeStyle;rounded=0;orthogonalLoop=1;jettySize=auto;html=1;" edge="1" parent="1" source="3KkofnGiVOc6UB96kIpY-2" target="x9ryf0Mr25MXoDsbSfs6-23">
          <mxGeometry relative="1" as="geometry" />
        </mxCell>
        <mxCell id="3KkofnGiVOc6UB96kIpY-14" value="YES" style="edgeLabel;html=1;align=center;verticalAlign=middle;resizable=0;points=[];" vertex="1" connectable="0" parent="3KkofnGiVOc6UB96kIpY-13">
          <mxGeometry x="-0.28" y="1" relative="1" as="geometry">
            <mxPoint as="offset" />
          </mxGeometry>
        </mxCell>
        <mxCell id="3KkofnGiVOc6UB96kIpY-2" value="Valid" style="strokeWidth=2;html=1;shape=mxgraph.flowchart.decision;whiteSpace=wrap;" vertex="1" parent="1">
          <mxGeometry x="510" y="145" width="150" height="150" as="geometry" />
        </mxCell>
      </root>
    </mxGraphModel>
  </diagram>
  <diagram id="xfrwAZqGuqhzDQNwCmoF" name="Page-2">
    <mxGraphModel dx="3164" dy="96" grid="1" gridSize="10" guides="1" tooltips="1" connect="1" arrows="1" fold="1" page="1" pageScale="1" pageWidth="850" pageHeight="1100" math="0" shadow="0">
      <root>
        <mxCell id="0" />
        <mxCell id="1" parent="0" />
        <mxCell id="u5AMdNxhtKGEiw-9lGwc-1" value="" style="rounded=0;whiteSpace=wrap;html=1;fillColor=none;" vertex="1" parent="1">
          <mxGeometry x="-400" y="1240" width="680" height="400" as="geometry" />
        </mxCell>
        <mxCell id="u5AMdNxhtKGEiw-9lGwc-2" value="RECEIVE UPGRADE" style="rounded=0;whiteSpace=wrap;html=1;fillColor=#e1d5e7;strokeColor=#9673a6;rotation=-90;" vertex="1" parent="1">
          <mxGeometry x="-620" y="1420" width="400" height="40" as="geometry" />
        </mxCell>
        <mxCell id="u5AMdNxhtKGEiw-9lGwc-3" style="edgeStyle=orthogonalEdgeStyle;rounded=0;orthogonalLoop=1;jettySize=auto;html=1;entryX=0;entryY=0.5;entryDx=0;entryDy=0;" edge="1" parent="1" source="u5AMdNxhtKGEiw-9lGwc-4">
          <mxGeometry relative="1" as="geometry">
            <mxPoint x="-240" y="1440" as="targetPoint" />
          </mxGeometry>
        </mxCell>
        <mxCell id="u5AMdNxhtKGEiw-9lGwc-4" value="Start" style="strokeWidth=2;html=1;shape=mxgraph.flowchart.start_1;whiteSpace=wrap;" vertex="1" parent="1">
          <mxGeometry x="-360" y="1400" width="80" height="80" as="geometry" />
        </mxCell>
        <mxCell id="u5AMdNxhtKGEiw-9lGwc-5" value="MDFU_CommandProcess" style="verticalLabelPosition=bottom;verticalAlign=top;html=1;shape=process;whiteSpace=wrap;rounded=1;size=0.07692307692307693;arcSize=6;" vertex="1" parent="1">
          <mxGeometry x="-240" y="1410" width="130" height="60" as="geometry" />
        </mxCell>
        <mxCell id="u5AMdNxhtKGEiw-9lGwc-6" value="BOOTING" style="strokeWidth=2;html=1;shape=mxgraph.flowchart.terminator;whiteSpace=wrap;" vertex="1" parent="1">
          <mxGeometry x="-65" y="1540" width="130" height="60" as="geometry" />
        </mxCell>
        <mxCell id="u5AMdNxhtKGEiw-9lGwc-7" style="edgeStyle=orthogonalEdgeStyle;rounded=0;orthogonalLoop=1;jettySize=auto;html=1;entryX=0;entryY=0.5;entryDx=0;entryDy=0;entryPerimeter=0;" edge="1" parent="1" source="u5AMdNxhtKGEiw-9lGwc-5" target="u5AMdNxhtKGEiw-9lGwc-8">
          <mxGeometry relative="1" as="geometry" />
        </mxCell>
        <mxCell id="u5AMdNxhtKGEiw-9lGwc-8" value="status == COMPLETE?" style="strokeWidth=2;html=1;shape=mxgraph.flowchart.decision;whiteSpace=wrap;" vertex="1" parent="1">
          <mxGeometry x="-50" y="1390" width="100" height="100" as="geometry" />
        </mxCell>
        <mxCell id="u5AMdNxhtKGEiw-9lGwc-9" value="YES" style="edgeStyle=orthogonalEdgeStyle;rounded=0;orthogonalLoop=1;jettySize=auto;html=1;entryX=0.5;entryY=0;entryDx=0;entryDy=0;entryPerimeter=0;" edge="1" parent="1" source="u5AMdNxhtKGEiw-9lGwc-8" target="u5AMdNxhtKGEiw-9lGwc-6">
          <mxGeometry relative="1" as="geometry" />
        </mxCell>
        <mxCell id="u5AMdNxhtKGEiw-9lGwc-10" value="NO" style="edgeStyle=orthogonalEdgeStyle;rounded=0;orthogonalLoop=1;jettySize=auto;html=1;exitX=1;exitY=0.5;exitDx=0;exitDy=0;exitPerimeter=0;" edge="1" parent="1" source="u5AMdNxhtKGEiw-9lGwc-11">
          <mxGeometry relative="1" as="geometry">
            <mxPoint x="-260" y="1440" as="targetPoint" />
            <Array as="points">
              <mxPoint x="240" y="1440" />
              <mxPoint x="240" y="1330" />
              <mxPoint x="-260" y="1330" />
            </Array>
          </mxGeometry>
        </mxCell>
        <mxCell id="u5AMdNxhtKGEiw-9lGwc-11" value="status == FAILED?" style="strokeWidth=2;html=1;shape=mxgraph.flowchart.decision;whiteSpace=wrap;" vertex="1" parent="1">
          <mxGeometry x="120" y="1390" width="100" height="100" as="geometry" />
        </mxCell>
        <mxCell id="u5AMdNxhtKGEiw-9lGwc-12" value="NO" style="edgeStyle=orthogonalEdgeStyle;rounded=0;orthogonalLoop=1;jettySize=auto;html=1;entryX=0;entryY=0.5;entryDx=0;entryDy=0;entryPerimeter=0;" edge="1" parent="1" source="u5AMdNxhtKGEiw-9lGwc-8" target="u5AMdNxhtKGEiw-9lGwc-11">
          <mxGeometry relative="1" as="geometry" />
        </mxCell>
        <mxCell id="u5AMdNxhtKGEiw-9lGwc-13" value="BOOTING" style="strokeWidth=2;html=1;shape=mxgraph.flowchart.terminator;whiteSpace=wrap;" vertex="1" parent="1">
          <mxGeometry x="105" y="1540" width="130" height="60" as="geometry" />
        </mxCell>
        <mxCell id="u5AMdNxhtKGEiw-9lGwc-14" value="YES" style="edgeStyle=orthogonalEdgeStyle;rounded=0;orthogonalLoop=1;jettySize=auto;html=1;entryX=0.5;entryY=0;entryDx=0;entryDy=0;entryPerimeter=0;exitX=0.5;exitY=1;exitDx=0;exitDy=0;exitPerimeter=0;" edge="1" parent="1" source="u5AMdNxhtKGEiw-9lGwc-11" target="u5AMdNxhtKGEiw-9lGwc-13">
          <mxGeometry relative="1" as="geometry">
            <mxPoint x="10" y="1500" as="sourcePoint" />
            <mxPoint x="10" y="1550" as="targetPoint" />
          </mxGeometry>
        </mxCell>
      </root>
    </mxGraphModel>
  </diagram>
  <diagram id="OVxsVVqRsK2KNnAt2pIF" name="Page-3">
    <mxGraphModel dx="3164" dy="1196" grid="1" gridSize="10" guides="1" tooltips="1" connect="1" arrows="1" fold="1" page="1" pageScale="1" pageWidth="850" pageHeight="1100" math="0" shadow="0">
      <root>
        <mxCell id="0" />
        <mxCell id="1" parent="0" />
        <mxCell id="HqtnuGeCZNw6-mAuMxoE-1" value="" style="rounded=0;whiteSpace=wrap;html=1;fillColor=none;" vertex="1" parent="1">
          <mxGeometry x="-400" y="440" width="850" height="400" as="geometry" />
        </mxCell>
        <mxCell id="HqtnuGeCZNw6-mAuMxoE-2" value="RECOVER FROM DOWNLOAD" style="rounded=0;whiteSpace=wrap;html=1;fillColor=#dae8fc;strokeColor=#6c8ebf;rotation=-90;" vertex="1" parent="1">
          <mxGeometry x="-620" y="620" width="400" height="40" as="geometry" />
        </mxCell>
        <mxCell id="HqtnuGeCZNw6-mAuMxoE-3" style="edgeStyle=orthogonalEdgeStyle;rounded=0;orthogonalLoop=1;jettySize=auto;html=1;" edge="1" parent="1" source="HqtnuGeCZNw6-mAuMxoE-4">
          <mxGeometry relative="1" as="geometry">
            <mxPoint x="-200" y="600" as="targetPoint" />
          </mxGeometry>
        </mxCell>
        <mxCell id="HqtnuGeCZNw6-mAuMxoE-4" value="Start" style="strokeWidth=2;html=1;shape=mxgraph.flowchart.start_1;whiteSpace=wrap;" vertex="1" parent="1">
          <mxGeometry x="-360" y="560" width="80" height="80" as="geometry" />
        </mxCell>
        <mxCell id="HqtnuGeCZNw6-mAuMxoE-5" value="Verify" style="verticalLabelPosition=bottom;verticalAlign=top;html=1;shape=process;whiteSpace=wrap;rounded=1;size=0.14;arcSize=6;" vertex="1" parent="1">
          <mxGeometry x="-20" y="570" width="100" height="60" as="geometry" />
        </mxCell>
        <mxCell id="HqtnuGeCZNw6-mAuMxoE-6" style="edgeStyle=orthogonalEdgeStyle;rounded=0;orthogonalLoop=1;jettySize=auto;html=1;entryX=0.5;entryY=0;entryDx=0;entryDy=0;" edge="1" parent="1" source="HqtnuGeCZNw6-mAuMxoE-7" target="HqtnuGeCZNw6-mAuMxoE-5">
          <mxGeometry relative="1" as="geometry" />
        </mxCell>
        <mxCell id="HqtnuGeCZNw6-mAuMxoE-7" value="download &lt;br&gt;partition" style="strokeWidth=2;html=1;shape=mxgraph.flowchart.document2;whiteSpace=wrap;size=0.25;" vertex="1" parent="1">
          <mxGeometry x="-20" y="480" width="100" height="60" as="geometry" />
        </mxCell>
        <mxCell id="HqtnuGeCZNw6-mAuMxoE-8" value="Valid" style="strokeWidth=2;html=1;shape=mxgraph.flowchart.decision;whiteSpace=wrap;" vertex="1" parent="1">
          <mxGeometry x="130" y="550" width="100" height="100" as="geometry" />
        </mxCell>
        <mxCell id="HqtnuGeCZNw6-mAuMxoE-9" style="edgeStyle=orthogonalEdgeStyle;rounded=0;orthogonalLoop=1;jettySize=auto;html=1;entryX=0;entryY=0.5;entryDx=0;entryDy=0;entryPerimeter=0;" edge="1" parent="1" source="HqtnuGeCZNw6-mAuMxoE-5" target="HqtnuGeCZNw6-mAuMxoE-8">
          <mxGeometry relative="1" as="geometry" />
        </mxCell>
        <mxCell id="HqtnuGeCZNw6-mAuMxoE-10" value="RECEIVE UPGRADE" style="strokeWidth=2;html=1;shape=mxgraph.flowchart.terminator;whiteSpace=wrap;" vertex="1" parent="1">
          <mxGeometry x="115" y="710" width="130" height="60" as="geometry" />
        </mxCell>
        <mxCell id="HqtnuGeCZNw6-mAuMxoE-11" value="NO" style="edgeStyle=orthogonalEdgeStyle;rounded=0;orthogonalLoop=1;jettySize=auto;html=1;entryX=0.5;entryY=0;entryDx=0;entryDy=0;entryPerimeter=0;" edge="1" parent="1" source="HqtnuGeCZNw6-mAuMxoE-8" target="HqtnuGeCZNw6-mAuMxoE-10">
          <mxGeometry relative="1" as="geometry" />
        </mxCell>
        <mxCell id="HqtnuGeCZNw6-mAuMxoE-12" value="YES" style="edgeStyle=orthogonalEdgeStyle;rounded=0;orthogonalLoop=1;jettySize=auto;html=1;entryX=0;entryY=0.5;entryDx=0;entryDy=0;entryPerimeter=0;" edge="1" parent="1" source="HqtnuGeCZNw6-mAuMxoE-8">
          <mxGeometry relative="1" as="geometry">
            <mxPoint x="300" y="600" as="targetPoint" />
          </mxGeometry>
        </mxCell>
        <mxCell id="HqtnuGeCZNw6-mAuMxoE-13" value="INSTALL UPGRADE" style="strokeWidth=2;html=1;shape=mxgraph.flowchart.terminator;whiteSpace=wrap;" vertex="1" parent="1">
          <mxGeometry x="300" y="570" width="130" height="60" as="geometry" />
        </mxCell>
        <mxCell id="HqtnuGeCZNw6-mAuMxoE-14" value="YES" style="edgeStyle=orthogonalEdgeStyle;rounded=0;orthogonalLoop=1;jettySize=auto;html=1;entryX=0;entryY=0.5;entryDx=0;entryDy=0;" edge="1" parent="1" source="HqtnuGeCZNw6-mAuMxoE-15" target="HqtnuGeCZNw6-mAuMxoE-5">
          <mxGeometry relative="1" as="geometry" />
        </mxCell>
        <mxCell id="HqtnuGeCZNw6-mAuMxoE-15" value="Recovery Authorized?" style="strokeWidth=2;html=1;shape=mxgraph.flowchart.decision;whiteSpace=wrap;" vertex="1" parent="1">
          <mxGeometry x="-200" y="550" width="100" height="100" as="geometry" />
        </mxCell>
        <mxCell id="HqtnuGeCZNw6-mAuMxoE-16" value="RECEIVE UPGRADE" style="strokeWidth=2;html=1;shape=mxgraph.flowchart.terminator;whiteSpace=wrap;" vertex="1" parent="1">
          <mxGeometry x="-215" y="710" width="130" height="60" as="geometry" />
        </mxCell>
        <mxCell id="HqtnuGeCZNw6-mAuMxoE-17" value="NO" style="edgeStyle=orthogonalEdgeStyle;rounded=0;orthogonalLoop=1;jettySize=auto;html=1;entryX=0.5;entryY=0;entryDx=0;entryDy=0;entryPerimeter=0;" edge="1" parent="1" source="HqtnuGeCZNw6-mAuMxoE-15" target="HqtnuGeCZNw6-mAuMxoE-16">
          <mxGeometry relative="1" as="geometry" />
        </mxCell>
      </root>
    </mxGraphModel>
  </diagram>
  <diagram id="gkiwwjy4gmndjDBCcYJV" name="Page-4">
    <mxGraphModel dx="3164" dy="1196" grid="1" gridSize="10" guides="1" tooltips="1" connect="1" arrows="1" fold="1" page="1" pageScale="1" pageWidth="850" pageHeight="1100" math="0" shadow="0">
      <root>
        <mxCell id="0" />
        <mxCell id="1" parent="0" />
        <mxCell id="ek_zf0ejNXy6galymQ_m-1" value="" style="rounded=0;whiteSpace=wrap;html=1;fillColor=none;" vertex="1" parent="1">
          <mxGeometry x="-440" y="40" width="1040" height="400" as="geometry" />
        </mxCell>
        <mxCell id="ek_zf0ejNXy6galymQ_m-2" value="LAUNCH EXECUTABLE" style="rounded=0;whiteSpace=wrap;html=1;fillColor=#f8cecc;strokeColor=#b85450;rotation=-90;" vertex="1" parent="1">
          <mxGeometry x="-620" y="220" width="400" height="40" as="geometry" />
        </mxCell>
        <mxCell id="ek_zf0ejNXy6galymQ_m-3" value="Start" style="strokeWidth=2;html=1;shape=mxgraph.flowchart.start_1;whiteSpace=wrap;" vertex="1" parent="1">
          <mxGeometry x="-360" y="180" width="80" height="80" as="geometry" />
        </mxCell>
        <mxCell id="ek_zf0ejNXy6galymQ_m-4" value="Verify" style="verticalLabelPosition=bottom;verticalAlign=top;html=1;shape=process;whiteSpace=wrap;rounded=1;size=0.14;arcSize=6;" vertex="1" parent="1">
          <mxGeometry x="-160" y="190" width="100" height="60" as="geometry" />
        </mxCell>
        <mxCell id="ek_zf0ejNXy6galymQ_m-5" style="edgeStyle=orthogonalEdgeStyle;rounded=0;orthogonalLoop=1;jettySize=auto;html=1;entryX=0.5;entryY=0;entryDx=0;entryDy=0;" edge="1" parent="1" source="ek_zf0ejNXy6galymQ_m-6" target="ek_zf0ejNXy6galymQ_m-4">
          <mxGeometry relative="1" as="geometry" />
        </mxCell>
        <mxCell id="ek_zf0ejNXy6galymQ_m-6" value="executable partition" style="strokeWidth=2;html=1;shape=mxgraph.flowchart.document2;whiteSpace=wrap;size=0.25;" vertex="1" parent="1">
          <mxGeometry x="-160" y="100" width="100" height="60" as="geometry" />
        </mxCell>
        <mxCell id="ek_zf0ejNXy6galymQ_m-7" value="Valid" style="strokeWidth=2;html=1;shape=mxgraph.flowchart.decision;whiteSpace=wrap;" vertex="1" parent="1">
          <mxGeometry x="-10" y="170" width="100" height="100" as="geometry" />
        </mxCell>
        <mxCell id="ek_zf0ejNXy6galymQ_m-8" style="edgeStyle=orthogonalEdgeStyle;rounded=0;orthogonalLoop=1;jettySize=auto;html=1;entryX=0;entryY=0.5;entryDx=0;entryDy=0;entryPerimeter=0;" edge="1" parent="1" source="ek_zf0ejNXy6galymQ_m-4" target="ek_zf0ejNXy6galymQ_m-7">
          <mxGeometry relative="1" as="geometry" />
        </mxCell>
        <mxCell id="ek_zf0ejNXy6galymQ_m-9" value="RESET" style="strokeWidth=2;html=1;shape=mxgraph.flowchart.terminator;whiteSpace=wrap;" vertex="1" parent="1">
          <mxGeometry x="-25" y="330" width="130" height="60" as="geometry" />
        </mxCell>
        <mxCell id="ek_zf0ejNXy6galymQ_m-10" value="NO" style="edgeStyle=orthogonalEdgeStyle;rounded=0;orthogonalLoop=1;jettySize=auto;html=1;entryX=0.5;entryY=0;entryDx=0;entryDy=0;entryPerimeter=0;" edge="1" parent="1" source="ek_zf0ejNXy6galymQ_m-7" target="ek_zf0ejNXy6galymQ_m-9">
          <mxGeometry relative="1" as="geometry" />
        </mxCell>
        <mxCell id="ek_zf0ejNXy6galymQ_m-13" value="YES" style="edgeStyle=orthogonalEdgeStyle;rounded=0;orthogonalLoop=1;jettySize=auto;html=1;entryX=0;entryY=0.5;entryDx=0;entryDy=0;entryPerimeter=0;" edge="1" parent="1" source="ek_zf0ejNXy6galymQ_m-7">
          <mxGeometry relative="1" as="geometry">
            <mxPoint x="160" y="220" as="targetPoint" />
          </mxGeometry>
        </mxCell>
        <mxCell id="ek_zf0ejNXy6galymQ_m-25" value="" style="edgeStyle=orthogonalEdgeStyle;rounded=0;orthogonalLoop=1;jettySize=auto;html=1;entryX=0;entryY=0.5;entryDx=0;entryDy=0;" edge="1" parent="1" source="ek_zf0ejNXy6galymQ_m-3" target="ek_zf0ejNXy6galymQ_m-4">
          <mxGeometry relative="1" as="geometry">
            <mxPoint x="-350" y="220" as="sourcePoint" />
            <mxPoint x="-310" y="220" as="targetPoint" />
          </mxGeometry>
        </mxCell>
        <mxCell id="-Ehhx9hh0X80oF00lLRE-5" value="" style="edgeStyle=orthogonalEdgeStyle;rounded=0;orthogonalLoop=1;jettySize=auto;html=1;" edge="1" parent="1" source="-Ehhx9hh0X80oF00lLRE-1" target="-Ehhx9hh0X80oF00lLRE-4">
          <mxGeometry relative="1" as="geometry" />
        </mxCell>
        <mxCell id="-Ehhx9hh0X80oF00lLRE-1" value="Mode Change (executable, readable, write protected)" style="verticalLabelPosition=bottom;verticalAlign=top;html=1;shape=process;whiteSpace=wrap;rounded=1;size=0.14;arcSize=6;" vertex="1" parent="1">
          <mxGeometry x="160" y="190" width="100" height="60" as="geometry" />
        </mxCell>
        <mxCell id="-Ehhx9hh0X80oF00lLRE-3" value="" style="edgeStyle=orthogonalEdgeStyle;rounded=0;orthogonalLoop=1;jettySize=auto;html=1;" edge="1" parent="1" source="-Ehhx9hh0X80oF00lLRE-2" target="-Ehhx9hh0X80oF00lLRE-1">
          <mxGeometry relative="1" as="geometry" />
        </mxCell>
        <mxCell id="-Ehhx9hh0X80oF00lLRE-2" value="executable partition" style="strokeWidth=2;html=1;shape=mxgraph.flowchart.document2;whiteSpace=wrap;size=0.25;" vertex="1" parent="1">
          <mxGeometry x="160" y="100" width="100" height="60" as="geometry" />
        </mxCell>
        <mxCell id="GhlHf69cNG9i1Qs6FwkO-4" value="" style="edgeStyle=orthogonalEdgeStyle;rounded=0;orthogonalLoop=1;jettySize=auto;html=1;" edge="1" parent="1" source="-Ehhx9hh0X80oF00lLRE-4" target="GhlHf69cNG9i1Qs6FwkO-3">
          <mxGeometry relative="1" as="geometry" />
        </mxCell>
        <mxCell id="GhlHf69cNG9i1Qs6FwkO-5" value="NO" style="edgeLabel;html=1;align=center;verticalAlign=middle;resizable=0;points=[];" vertex="1" connectable="0" parent="GhlHf69cNG9i1Qs6FwkO-4">
          <mxGeometry x="-0.4" y="-4" relative="1" as="geometry">
            <mxPoint as="offset" />
          </mxGeometry>
        </mxCell>
        <mxCell id="GhlHf69cNG9i1Qs6FwkO-12" style="edgeStyle=orthogonalEdgeStyle;rounded=0;orthogonalLoop=1;jettySize=auto;html=1;entryX=0;entryY=0.5;entryDx=0;entryDy=0;" edge="1" parent="1" source="-Ehhx9hh0X80oF00lLRE-4" target="GhlHf69cNG9i1Qs6FwkO-10">
          <mxGeometry relative="1" as="geometry" />
        </mxCell>
        <mxCell id="-Ehhx9hh0X80oF00lLRE-4" value="status = SUCCESS?&amp;nbsp;" style="strokeWidth=2;html=1;shape=mxgraph.flowchart.decision;whiteSpace=wrap;" vertex="1" parent="1">
          <mxGeometry x="310" y="170" width="100" height="100" as="geometry" />
        </mxCell>
        <mxCell id="GhlHf69cNG9i1Qs6FwkO-3" value="RESET" style="strokeWidth=2;html=1;shape=mxgraph.flowchart.terminator;whiteSpace=wrap;" vertex="1" parent="1">
          <mxGeometry x="295" y="330" width="130" height="60" as="geometry" />
        </mxCell>
        <mxCell id="GhlHf69cNG9i1Qs6FwkO-10" value="Start Application" style="verticalLabelPosition=bottom;verticalAlign=top;html=1;shape=process;whiteSpace=wrap;rounded=1;size=0.14;arcSize=6;" vertex="1" parent="1">
          <mxGeometry x="480" y="190" width="100" height="60" as="geometry" />
        </mxCell>
      </root>
    </mxGraphModel>
  </diagram>
  <diagram id="B_5H57cSLlVPFJiXANle" name="Page-5">
    <mxGraphModel dx="3164" dy="2296" grid="1" gridSize="10" guides="1" tooltips="1" connect="1" arrows="1" fold="1" page="1" pageScale="1" pageWidth="850" pageHeight="1100" math="0" shadow="0">
      <root>
        <mxCell id="0" />
        <mxCell id="1" parent="0" />
        <mxCell id="R0z9p9PxLnnOziHaRcUp-1" value="" style="rounded=0;whiteSpace=wrap;html=1;fillColor=none;" vertex="1" parent="1">
          <mxGeometry x="-400" y="-360" width="730" height="400" as="geometry" />
        </mxCell>
        <mxCell id="R0z9p9PxLnnOziHaRcUp-2" value="RESET" style="rounded=0;whiteSpace=wrap;html=1;fillColor=#fff2cc;strokeColor=#d6b656;rotation=-90;" vertex="1" parent="1">
          <mxGeometry x="-620" y="-180" width="400" height="40" as="geometry" />
        </mxCell>
        <mxCell id="R0z9p9PxLnnOziHaRcUp-3" value="YES" style="edgeStyle=orthogonalEdgeStyle;rounded=0;orthogonalLoop=1;jettySize=auto;html=1;entryX=0;entryY=0.5;entryDx=0;entryDy=0;" edge="1" parent="1" source="R0z9p9PxLnnOziHaRcUp-6" target="R0z9p9PxLnnOziHaRcUp-9">
          <mxGeometry relative="1" as="geometry">
            <mxPoint x="-90" y="-215" as="targetPoint" />
          </mxGeometry>
        </mxCell>
        <mxCell id="R0z9p9PxLnnOziHaRcUp-4" value="Start" style="strokeWidth=2;html=1;shape=mxgraph.flowchart.start_1;whiteSpace=wrap;" vertex="1" parent="1">
          <mxGeometry x="-320" y="-255" width="80" height="80" as="geometry" />
        </mxCell>
        <mxCell id="R0z9p9PxLnnOziHaRcUp-5" value="" style="edgeStyle=orthogonalEdgeStyle;rounded=0;orthogonalLoop=1;jettySize=auto;html=1;" edge="1" parent="1" source="R0z9p9PxLnnOziHaRcUp-4" target="R0z9p9PxLnnOziHaRcUp-6">
          <mxGeometry relative="1" as="geometry">
            <mxPoint x="-280" y="-215" as="sourcePoint" />
            <mxPoint x="-170" y="-545" as="targetPoint" />
          </mxGeometry>
        </mxCell>
        <mxCell id="R0z9p9PxLnnOziHaRcUp-6" value="User requested firmware upgrade?" style="strokeWidth=2;html=1;shape=mxgraph.flowchart.decision;whiteSpace=wrap;" vertex="1" parent="1">
          <mxGeometry x="-200" y="-285" width="130" height="140" as="geometry" />
        </mxCell>
        <mxCell id="R0z9p9PxLnnOziHaRcUp-7" value="NO" style="edgeStyle=orthogonalEdgeStyle;rounded=0;orthogonalLoop=1;jettySize=auto;html=1;entryX=0.5;entryY=0;entryDx=0;entryDy=0;entryPerimeter=0;" edge="1" parent="1" source="R0z9p9PxLnnOziHaRcUp-6" target="R0z9p9PxLnnOziHaRcUp-8">
          <mxGeometry x="-0.3333" relative="1" as="geometry">
            <mxPoint x="-190" y="-105" as="targetPoint" />
            <mxPoint as="offset" />
          </mxGeometry>
        </mxCell>
        <mxCell id="R0z9p9PxLnnOziHaRcUp-8" value="BOOTING" style="strokeWidth=2;html=1;shape=mxgraph.flowchart.terminator;whiteSpace=wrap;" vertex="1" parent="1">
          <mxGeometry x="-200" y="-100" width="130" height="60" as="geometry" />
        </mxCell>
        <mxCell id="R0z9p9PxLnnOziHaRcUp-9" value="Clear Request" style="verticalLabelPosition=bottom;verticalAlign=top;html=1;shape=process;whiteSpace=wrap;rounded=1;size=0.14;arcSize=6;" vertex="1" parent="1">
          <mxGeometry x="20" y="-245" width="100" height="60" as="geometry" />
        </mxCell>
        <mxCell id="R0z9p9PxLnnOziHaRcUp-10" value="RECEIVE UPGRADE" style="strokeWidth=2;html=1;shape=mxgraph.flowchart.terminator;whiteSpace=wrap;" vertex="1" parent="1">
          <mxGeometry x="180" y="-245" width="130" height="60" as="geometry" />
        </mxCell>
        <mxCell id="R0z9p9PxLnnOziHaRcUp-11" style="edgeStyle=orthogonalEdgeStyle;rounded=0;orthogonalLoop=1;jettySize=auto;html=1;entryX=0;entryY=0.5;entryDx=0;entryDy=0;entryPerimeter=0;" edge="1" parent="1" source="R0z9p9PxLnnOziHaRcUp-9" target="R0z9p9PxLnnOziHaRcUp-10">
          <mxGeometry relative="1" as="geometry" />
        </mxCell>
      </root>
    </mxGraphModel>
  </diagram>
</mxfile>
